<?xml version="1.0" encoding="UTF-8"?>
<svg version="1.1" xmlns="http://www.w3.org/2000/svg" width="458" height="431">
<path d="M0 0 C6.17455341 4.96446505 9.44407997 11.11979193 12.39453125 18.375 C12.77480469 19.303125 13.15507812 20.23125 13.546875 21.1875 C14.63580889 25.28229286 14.6123574 29.03712082 14.51953125 33.25 C14.51050781 34.03375 14.50148437 34.8175 14.4921875 35.625 C14.46881188 37.54180055 14.43294778 39.45844191 14.39453125 41.375 C15.24917969 41.50390625 16.10382813 41.6328125 16.984375 41.765625 C48.49857231 47.39702796 81.2906776 66.20160504 103.39453125 89.375 C103.39453125 90.035 103.39453125 90.695 103.39453125 91.375 C104.38453125 91.705 105.37453125 92.035 106.39453125 92.375 C106.39453125 93.035 106.39453125 93.695 106.39453125 94.375 C107.05453125 94.375 107.71453125 94.375 108.39453125 94.375 C110.0008714 96.10891951 111.53205995 97.913091 113.01953125 99.75 C113.83679688 100.74773437 114.6540625 101.74546875 115.49609375 102.7734375 C117.39453125 105.375 117.39453125 105.375 117.39453125 107.375 C118.05453125 107.375 118.71453125 107.375 119.39453125 107.375 C120.53613281 108.76098633 120.53613281 108.76098633 121.78515625 110.70703125 C122.2445459 111.41786865 122.70393555 112.12870605 123.17724609 112.86108398 C123.6614502 113.62880127 124.1456543 114.39651855 124.64453125 115.1875 C125.14033691 115.96488525 125.63614258 116.74227051 126.14697266 117.54321289 C129.82438341 123.3570414 133.2548822 129.25219532 136.39453125 135.375 C136.79800781 136.12007812 137.20148438 136.86515625 137.6171875 137.6328125 C147.9027706 157.14565505 152.38818322 177.71129844 155.39453125 199.375 C155.52859375 200.33019531 155.66265625 201.28539062 155.80078125 202.26953125 C158.75577162 227.0175756 154.43130725 252.97867128 146.39453125 276.375 C146.1742627 277.035 145.95399414 277.695 145.72705078 278.375 C142.1189911 289.10747092 137.202485 298.66926396 131.39453125 308.375 C134.33737778 310.78910815 137.33823912 313.10621873 140.39453125 315.375 C141.090625 315.89578125 141.78671875 316.4165625 142.50390625 316.953125 C149.99344108 321.8522944 158.41841565 321.20407141 166.99487305 319.77514648 C170.57222334 318.97609555 174.10518858 318.07789995 177.64453125 317.125 C178.83304687 316.82464844 180.0215625 316.52429688 181.24609375 316.21484375 C187.47540653 314.59907277 193.41044155 312.74395536 199.3059082 310.15478516 C202.42949958 308.98859569 205.11567032 308.97350683 208.39453125 309.375 C209.38453125 310.035 210.37453125 310.695 211.39453125 311.375 C213.07107854 311.09557545 214.74061279 310.76671753 216.39453125 310.375 C217.39453125 311.375 217.39453125 311.375 217.51953125 314.8125 C217.35465538 327.88480075 217.35465538 327.88480075 215.39453125 333.375 C213.69213867 334.80712891 213.69213867 334.80712891 211.5 336.1015625 C210.70916016 336.5759375 209.91832031 337.0503125 209.10351562 337.5390625 C207.85538086 338.26222656 207.85538086 338.26222656 206.58203125 339 C205.76154297 339.48984375 204.94105469 339.9796875 204.09570312 340.484375 C201.87331373 341.80374973 199.64833553 343.11004807 197.39453125 344.375 C196.74758301 344.75124512 196.10063477 345.12749023 195.43408203 345.51513672 C187.8662903 348.70567568 177.07034609 345.89764551 169.20703125 344.875 C168.06427734 344.73191406 166.92152344 344.58882813 165.74414062 344.44140625 C162.96011806 344.09194735 160.177026 343.73638792 157.39453125 343.375 C157.95027832 343.98553223 158.50602539 344.59606445 159.07861328 345.22509766 C159.80419434 346.02995605 160.52977539 346.83481445 161.27734375 347.6640625 C161.99809082 348.46021973 162.71883789 349.25637695 163.46142578 350.07666016 C165.96356597 353.05154621 167.24159258 355.6599754 168.39453125 359.375 C168.66652344 360.16261719 168.93851562 360.95023437 169.21875 361.76171875 C171.41499291 369.72164677 169.28008409 375.52012757 165.40673828 382.640625 C157.49131413 396.20337781 147.70035694 404.32450741 133.39453125 410.375 C129.22293109 411.45717708 125.15103107 411.50785047 120.86962891 411.48510742 C119.33566283 411.48564982 117.80169676 411.4862368 116.26773071 411.48686218 C115.45989765 411.48543402 114.65206459 411.48400585 113.81975174 411.48253441 C109.52169881 411.47899886 105.22377422 411.50482833 100.92578125 411.52539062 C95.46570856 411.54971544 90.00601779 411.56541811 84.54589844 411.55004883 C80.12423384 411.53836925 75.70351139 411.55582733 71.28199387 411.59249306 C69.60198364 411.60108933 67.92188279 411.59905733 66.2419014 411.585989 C56.11788643 411.04078597 56.11788643 411.04078597 47.43505859 415.2355957 C46.94881516 415.77608047 46.46257172 416.31656525 45.96159363 416.87342834 C30.43153441 431.75445481 -17.91970184 424.74560622 -37.7567749 424.63928223 C-41.94012919 424.62038189 -46.12343836 424.61618193 -50.30682945 424.6124506 C-72.11283652 424.59090721 -93.9042639 424.39281671 -115.70051575 423.71258545 C-125.7582631 423.40363193 -135.79366671 423.35507569 -145.85546875 423.4375 C-169.33752425 423.5309442 -190.51522453 422.26070777 -208.19921875 404.81640625 C-211.30413706 401.22497785 -213.3704235 398.571594 -214.29296875 393.875 C-212.57026949 385.10489465 -210.12787975 376.897411 -203.60546875 370.375 C-204.67925781 370.40980469 -205.75304687 370.44460938 -206.859375 370.48046875 C-208.29555714 370.50862918 -209.73175637 370.53592691 -211.16796875 370.5625 C-212.22467773 370.60020508 -212.22467773 370.60020508 -213.30273438 370.63867188 C-218.37639876 370.7088147 -222.08951393 369.92557595 -226.60546875 367.375 C-228.609375 365.02734375 -228.609375 365.02734375 -230.16796875 362.3125 C-230.73773438 361.33796875 -231.3075 360.3634375 -231.89453125 359.359375 C-232.45914063 358.37453125 -233.02375 357.3896875 -233.60546875 356.375 C-234.19070312 355.47265625 -234.7759375 354.5703125 -235.37890625 353.640625 C-240.45765011 345.7721486 -240.45765011 345.7721486 -239.60546875 340.375 C-238.84234375 340.230625 -238.07921875 340.08625 -237.29296875 339.9375 C-234.52373967 339.4117406 -234.52373967 339.4117406 -231.60546875 338.375 C-232.10046875 336.89 -232.10046875 336.89 -232.60546875 335.375 C-227.43880208 331.53003876 -227.43880208 331.53003876 -223.91796875 330.875 C-221.60546875 331.375 -221.60546875 331.375 -220.26171875 333.37890625 C-218.79027784 335.5801563 -218.79027784 335.5801563 -216.3984375 335.80859375 C-215.53863281 335.80988281 -214.67882812 335.81117188 -213.79296875 335.8125 C-207.53674995 336.10406812 -202.48670351 338.15731466 -196.76953125 340.609375 C-193.59057361 341.73433051 -193.59057361 341.73433051 -190.81640625 340.015625 C-190.08679688 339.47421875 -189.3571875 338.9328125 -188.60546875 338.375 C-187.94546875 338.375 -187.28546875 338.375 -186.60546875 338.375 C-186.60546875 337.715 -186.60546875 337.055 -186.60546875 336.375 C-185.1015625 334.89453125 -185.1015625 334.89453125 -183.04296875 333.1875 C-179.01871628 329.77298275 -175.2835687 326.15654651 -171.60546875 322.375 C-171.98316406 321.82457031 -172.36085938 321.27414062 -172.75 320.70703125 C-185.76993712 301.03991311 -195.85156291 279.52617516 -200.60546875 256.375 C-200.7873877 255.53324219 -200.96930664 254.69148438 -201.15673828 253.82421875 C-206.05961463 230.64849218 -206.71027211 206.57420222 -201.60546875 183.375 C-201.42322754 182.51583984 -201.24098633 181.65667969 -201.05322266 180.77148438 C-197.34739282 163.49618739 -191.89170069 147.98165663 -183.60546875 132.375 C-182.99960938 131.21097656 -182.39375 130.04695312 -181.76953125 128.84765625 C-173.8050495 114.17889556 -163.15156231 101.35643808 -151.60546875 89.375 C-150.64253906 88.35212891 -150.64253906 88.35212891 -149.66015625 87.30859375 C-148.35567529 85.95054714 -146.98915674 84.65225045 -145.60546875 83.375 C-144.94546875 83.375 -144.28546875 83.375 -143.60546875 83.375 C-143.60546875 82.715 -143.60546875 82.055 -143.60546875 81.375 C-142.26708984 80.09741211 -142.26708984 80.09741211 -140.37890625 78.65234375 C-139.68442383 78.11843018 -138.98994141 77.5845166 -138.27441406 77.03442383 C-137.13891113 76.18207153 -137.13891113 76.18207153 -135.98046875 75.3125 C-135.2028418 74.72686279 -134.42521484 74.14122559 -133.62402344 73.5378418 C-113.10296274 58.22684574 -84.14472939 40.375 -57.60546875 40.375 C-57.64027344 39.79234375 -57.67507812 39.2096875 -57.7109375 38.609375 C-58.12966191 25.92800703 -54.63178114 15.14494389 -46.16796875 5.63671875 C-33.42426028 -7.4673029 -16.19661264 -10.10163547 0 0 Z M-160.16796875 344.375 C-160.99425781 344.931875 -161.82054687 345.48875 -162.671875 346.0625 C-163.30996094 346.495625 -163.94804687 346.92875 -164.60546875 347.375 C-161.19407872 348.47151823 -158.39891294 348.31715473 -154.85546875 347.9375 C-153.870625 347.83566406 -152.88578125 347.73382813 -151.87109375 347.62890625 C-151.1234375 347.54511719 -150.37578125 347.46132813 -149.60546875 347.375 C-149.93546875 346.715 -150.26546875 346.055 -150.60546875 345.375 C-151.26546875 345.375 -151.92546875 345.375 -152.60546875 345.375 C-153.26546875 344.055 -153.92546875 342.735 -154.60546875 341.375 C-156.64051205 341.375 -158.55542772 343.28483142 -160.16796875 344.375 Z " fill="#FF9E33" transform="translate(240.60546875,6.625)"/>
<path d="M0 0 C1.08449035 10.5350491 1.08449035 10.5350491 0.75 15.125 C1.1563614 21.42360173 4.57351071 25.86026607 8 31 C8.55276592 32.96508283 9.04727522 34.94698726 9.5 36.9375 C10.39184193 41.05169392 10.39184193 41.05169392 12.0300293 44.89013672 C13.81435646 48.77137391 13.32710871 52.98311259 13.3125 57.1875 C13.32861328 58.09564453 13.34472656 59.00378906 13.36132812 59.93945312 C13.36674402 67.50545586 12.71829191 74.10751055 7.37890625 79.7890625 C3.53711498 82.55534152 -0.75622887 84.451334 -5.0625 86.375 C-10.86567629 89.01821803 -16.44164346 91.76636044 -21.9375 95 C-27.2055995 97.93862221 -31.26442 98.45221472 -37.2109375 98.671875 C-42.21833884 99.26098104 -45.52442319 101.42749475 -49 105 C-59.51871542 119.31313787 -61.77716736 142.57147617 -62.13061523 159.73803711 C-62.69226966 180.22034467 -68.40722196 201.04681664 -73.25 220.875 C-73.48356201 221.84195801 -73.71712402 222.80891602 -73.95776367 223.80517578 C-75.97466179 231.74152926 -79.40575707 236.62413607 -84.8125 242.625 C-91.90508879 250.64612813 -98.20588355 259.17170754 -104.45654297 267.85595703 C-105.85104573 269.79308504 -107.25302769 271.7243773 -108.66015625 273.65234375 C-110.44491982 276.09813086 -112.2250728 278.54707266 -114 281 C-118.08875925 277.25555732 -120.73865012 273.48180657 -123.375 268.625 C-123.76147705 267.92238037 -124.1479541 267.21976074 -124.54614258 266.49584961 C-139.52165402 238.93732751 -148.45404392 208.86858813 -148.3125 177.3125 C-148.30512817 175.34422241 -148.30512817 175.34422241 -148.29760742 173.33618164 C-148.17302114 162.94951919 -147.22940894 153.13173384 -145 143 C-144.81775879 142.14083984 -144.63551758 141.28167969 -144.44775391 140.39648438 C-140.74192407 123.12118739 -135.28623194 107.60665663 -127 92 C-126.39414063 90.83597656 -125.78828125 89.67195313 -125.1640625 88.47265625 C-117.19958075 73.80389556 -106.54609356 60.98143808 -95 49 C-94.03707031 47.97712891 -94.03707031 47.97712891 -93.0546875 46.93359375 C-91.75020654 45.57554714 -90.38368799 44.27725045 -89 43 C-88.34 43 -87.68 43 -87 43 C-87 42.34 -87 41.68 -87 41 C-85.66162109 39.72241211 -85.66162109 39.72241211 -83.7734375 38.27734375 C-83.07895508 37.74343018 -82.38447266 37.2095166 -81.66894531 36.65942383 C-80.91194336 36.09118896 -80.15494141 35.5229541 -79.375 34.9375 C-78.59737305 34.35186279 -77.81974609 33.76622559 -77.01855469 33.1628418 C-56.56180232 17.8998269 -26.59606825 -0.85947797 0 0 Z " fill="#FFF9DB" transform="translate(184,47)"/>
<path d="M0 0 C32.67512832 4.13609219 67.33419805 24.2374657 90 48 C90 48.66 90 49.32 90 50 C91.485 50.495 91.485 50.495 93 51 C93 51.66 93 52.32 93 53 C93.66 53 94.32 53 95 53 C96.60634015 54.73391951 98.1375287 56.538091 99.625 58.375 C100.44226563 59.37273437 101.25953125 60.37046875 102.1015625 61.3984375 C104 64 104 64 104 66 C104.66 66 105.32 66 106 66 C107.14160156 67.38598633 107.14160156 67.38598633 108.390625 69.33203125 C108.85001465 70.04286865 109.3094043 70.75370605 109.78271484 71.48608398 C110.509021 72.63765991 110.509021 72.63765991 111.25 73.8125 C111.74580566 74.58988525 112.24161133 75.36727051 112.75244141 76.16821289 C116.42985216 81.9820414 119.86035095 87.87719532 123 94 C123.60521484 95.11761719 123.60521484 95.11761719 124.22265625 96.2578125 C134.50823935 115.77065505 138.99365197 136.33629844 142 158 C142.20109375 159.43279297 142.20109375 159.43279297 142.40625 160.89453125 C145.36124037 185.6425756 141.036776 211.60367128 133 235 C132.77973145 235.66 132.55946289 236.32 132.33251953 237 C128.72445985 247.73247092 123.80795375 257.29426396 118 267 C113.97908612 267 111.82271546 265.08636893 108.6875 262.8125 C108.07374512 262.37123779 107.45999023 261.92997559 106.82763672 261.4753418 C100.24736202 256.62685062 94.38850179 251.06685903 88.49658203 245.41992188 C83.22478705 240.32982759 83.22478705 240.32982759 77.36938477 235.96826172 C70.6696634 231.26585625 69.64482996 224.63147997 67.8125 217 C67.17380158 214.49984038 66.53447984 211.99983991 65.89453125 209.5 C65.43494019 207.63480713 65.43494019 207.63480713 64.96606445 205.73193359 C64.01144507 202.04421262 62.90749395 198.42746655 61.78125 194.7890625 C59.96851524 188.51974559 59.48135084 182.87098922 59.6875 176.375 C59.69716797 175.42238281 59.70683594 174.46976563 59.71679688 173.48828125 C59.78182662 169.46774652 59.97755226 165.89322424 61 162 C62.17910983 144.35870287 59.76850936 121.53748764 49 107 C44.67408367 102.4191008 40.40829759 98.67222986 34.03076172 97.69970703 C26.28384412 96.44958139 19.59394139 93.4503974 12.5 90.1875 C10.76169922 89.40536133 10.76169922 89.40536133 8.98828125 88.60742188 C5.64717799 87.09543108 2.32062028 85.55640563 -1 84 C-1.9892749 83.53859619 -2.9785498 83.07719238 -3.99780273 82.60180664 C-4.89442627 82.1711792 -5.7910498 81.74055176 -6.71484375 81.296875 C-7.49722412 80.92272461 -8.27960449 80.54857422 -9.08569336 80.16308594 C-12.08725989 78.33940746 -12.99211272 76.29243178 -14 73 C-16.15195609 62.22451185 -16.6223104 51.3479528 -11.28515625 41.55078125 C-9.90399352 38.80944611 -9.27592212 36.30510422 -8.625 33.3125 C-7.37383521 28.23509872 -5.16337543 25.25228604 -1.5234375 21.55859375 C1.06586278 18.90954039 1.1365263 17.02794154 1.125 13.4375 C1.12757813 12.63183594 1.13015625 11.82617188 1.1328125 10.99609375 C1.22011391 9.00057979 1.22011391 9.00057979 0 8 C-0.14115161 5.32941149 -0.04247107 2.67567762 0 0 Z " fill="#FFF9DA" transform="translate(254,48)"/>
<path d="M0 0 C16.18794555 -1.50272783 28.25481836 2.48723785 42.87182617 9.18359375 C45.24317907 10.17027478 47.44676636 10.83112637 49.94970703 11.37402344 C56.18817919 12.95774153 59.59906936 17.37811004 63.03173828 22.63574219 C66.82543527 29.61124956 69.69756768 36.7550989 67.58251953 44.65917969 C61.06026974 61.12786041 50.44558849 72.17572306 34.75830078 79.88964844 C29.47164534 82.12558156 24.65114473 82.41851511 18.96386719 82.40185547 C17.85310066 82.40448395 17.85310066 82.40448395 16.71989441 82.40716553 C14.28084951 82.41155341 11.84187762 82.40865624 9.40283203 82.40527344 C7.70038845 82.4059475 5.99794496 82.40691838 4.29550171 82.40817261 C0.72970665 82.40964555 -2.83606333 82.4075085 -6.40185547 82.40283203 C-10.96016126 82.39714367 -15.51840804 82.40041065 -20.07671165 82.4064045 C-23.59240152 82.41002839 -27.10807755 82.40886297 -30.62376785 82.4062767 C-32.30379875 82.40561204 -33.98383092 82.40641968 -35.66386032 82.40875626 C-38.01845345 82.41131187 -40.37295286 82.40740103 -42.72753906 82.40185547 C-43.75801613 82.40489182 -43.75801613 82.40489182 -44.80931091 82.4079895 C-49.1270374 82.38926664 -53.25018409 81.94799642 -57.51123047 81.27246094 C-59.20083403 81.15046109 -60.8926342 81.05462615 -62.58544922 80.99121094 C-63.49447998 80.95455322 -64.40351074 80.91789551 -65.34008789 80.88012695 C-66.28343994 80.84459717 -67.22679199 80.80906738 -68.19873047 80.77246094 C-78.78189669 80.32557936 -89.15255805 79.81899998 -99.56982422 77.80371094 C-104.09811392 76.98585251 -108.65622632 76.43021122 -113.21826172 75.83496094 C-149.51945156 71.09666423 -149.51945156 71.09666423 -158.51123047 66.27246094 C-158.51123047 65.61246094 -158.51123047 64.95246094 -158.51123047 64.27246094 C-159.27435547 64.06621094 -160.03748047 63.85996094 -160.82373047 63.64746094 C-164.9162682 62.12142992 -168.52929697 60.15936175 -172.33935547 58.03808594 C-197.39159366 43.12062736 -197.39159366 43.12062736 -224.51123047 33.27246094 C-224.21015503 29.96063114 -223.82580968 27.73803817 -221.94873047 24.95996094 C-218.62283512 22.657418 -215.52062224 22.23330672 -211.51123047 22.27246094 C-210.5734375 22.53349609 -210.5734375 22.53349609 -209.61669922 22.79980469 C-206.86706481 23.41706955 -204.61139983 23.01915019 -201.82373047 22.64746094 C-196.02963075 22.07160563 -191.79292112 22.91170527 -186.51123047 25.27246094 C-186.51123047 25.93246094 -186.51123047 26.59246094 -186.51123047 27.27246094 C-185.91310547 27.37558594 -185.31498047 27.47871094 -184.69873047 27.58496094 C-182.19864761 28.37070126 -181.13587965 29.24164947 -179.51123047 31.27246094 C-179.51123047 31.93246094 -179.51123047 32.59246094 -179.51123047 33.27246094 C-178.78935547 33.56121094 -178.06748047 33.84996094 -177.32373047 34.14746094 C-175.60830863 34.83362967 -173.90197161 35.54393342 -172.21435547 36.29589844 C-169.23440109 37.37247155 -166.6022041 37.75136586 -163.44873047 38.02246094 C-161.91539062 38.16941406 -161.91539062 38.16941406 -160.35107422 38.31933594 C-157.37720593 38.2702487 -156.04836273 37.70980625 -153.51123047 36.27246094 C-149.41263801 35.93788196 -147.99927142 35.9471003 -144.51123047 38.27246094 C-144.51123047 38.93246094 -144.51123047 39.59246094 -144.51123047 40.27246094 C-135.83004531 45.13392462 -127.48000263 44.78741141 -117.90576172 42.70605469 C-115.39736695 41.98995504 -112.96297111 41.16332242 -110.51123047 40.27246094 C-109.10550781 39.78132813 -109.10550781 39.78132813 -107.67138672 39.28027344 C-100.35700129 36.60540361 -93.39151409 33.37618851 -86.38037109 30.00146484 C-79.50367096 26.70513947 -72.55580794 23.58870283 -65.57373047 20.52246094 C-64.55633789 20.07499512 -63.53894531 19.6275293 -62.49072266 19.16650391 C-59.50180161 17.85842625 -56.50791772 16.56263999 -53.51123047 15.27246094 C-52.51236816 14.83949707 -51.51350586 14.4065332 -50.484375 13.96044922 C-34.44981316 7.12252288 -17.35438208 1.88289815 0 0 Z " fill="#FF9B33" transform="translate(342.51123046875,335.7275390625)"/>
<path d="M0 0 C0.33 0 0.66 0 1 0 C1.03963867 0.64622314 1.07927734 1.29244629 1.12011719 1.95825195 C2.5157255 23.90824068 5.11987635 45.45970295 9.9375 66.9375 C10.28022949 68.49017578 10.28022949 68.49017578 10.62988281 70.07421875 C13.09721237 80.55443015 15.70050386 90.82625423 25 97 C26.13311419 97.77690392 27.26589484 98.55429441 28.3984375 99.33203125 C31.63118575 101.5318872 34.89753533 103.67589363 38.17675781 105.80566406 C39.78441344 106.85877752 41.37418398 107.93908615 42.9609375 109.0234375 C49.63691455 113.50671828 56.44899172 116.30321133 64 119 C65.94117276 119.761537 67.87908132 120.53148624 69.8125 121.3125 C70.62332031 121.63863281 71.43414062 121.96476562 72.26953125 122.30078125 C72.84058594 122.53152344 73.41164063 122.76226562 74 123 C74 123.66 74 124.32 74 125 C72.99324219 125.02578125 71.98648438 125.0515625 70.94921875 125.078125 C51.92754143 125.76123657 29.98194997 129.48939055 12.85766602 138.07397461 C10.32985057 139.33406187 8.79061927 139.44494394 6 139 C2.55443243 136.08405148 -0.12859081 132.47331971 -3 129 C-3.97066406 128.01 -3.97066406 128.01 -4.9609375 127 C-15.64984861 115.424236 -16.79318474 94.62569235 -16.1965332 79.64318848 C-15.56202196 71.10960341 -13.53591791 62.72510874 -11.75 54.375 C-11.3487168 52.42479615 -10.9489713 50.47427525 -10.55078125 48.5234375 C-8.53417682 38.73608215 -6.31347093 29.02624617 -3.83496094 19.34619141 C-2.81220341 15.24738596 -1.99254775 11.15826739 -1.25 7 C-1.12496094 6.3090625 -0.99992187 5.618125 -0.87109375 4.90625 C-0.57596423 3.2716865 -0.28716691 1.63598118 0 0 Z " fill="#FFFCF0" transform="translate(283,211)"/>
<path d="M0 0 C2.62018938 2.62018938 2.51748597 4.28215806 3 7.93359375 C3.165 9.14080078 3.33 10.34800781 3.5 11.59179688 C3.665 12.86087891 3.83 14.12996094 4 15.4375 C5.14508024 24.00323699 6.38137428 32.51049014 8 41 C11.96506022 62.32434113 15.15409715 89.51541181 3.21484375 108.93359375 C2.24819417 110.5778305 1.36136695 112.26892885 0.50390625 113.97265625 C-2.92816549 120.74961083 -6.56521806 126.24866853 -11.88671875 131.68359375 C-14.14478194 133.97997703 -14.14478194 133.97997703 -15.72265625 137.1015625 C-18.88128898 141.12164053 -21.88635075 141.81180015 -26.75 142.9375 C-28.04466187 143.2476001 -28.04466187 143.2476001 -29.36547852 143.56396484 C-36.57528555 145.0872808 -43.58704907 145.35435112 -50.9375 145.125 C-52.47325684 145.08814087 -52.47325684 145.08814087 -54.04003906 145.05053711 C-61.99901426 144.59412509 -61.99901426 144.59412509 -65.19140625 141.4296875 C-65.78824219 140.62789062 -66.38507813 139.82609375 -67 139 C-65.62108669 135.69368697 -64.28463666 134.22717631 -61.24609375 132.36328125 C-60.48216309 131.87730469 -59.71823242 131.39132812 -58.93115234 130.890625 C-58.10824707 130.36984375 -57.2853418 129.8490625 -56.4375 129.3125 C-41.78096457 119.64381999 -28.88032835 107.25998775 -20 92 C-19.6589624 91.42314453 -19.3179248 90.84628906 -18.96655273 90.25195312 C-15.85591277 84.60070464 -14.76573896 78.94005068 -13.6875 72.625 C-13.2681916 70.30682596 -12.84617424 67.98914076 -12.421875 65.671875 C-12.19693359 64.43630859 -11.97199219 63.20074219 -11.74023438 61.92773438 C-10.55113357 55.61828392 -9.21768284 49.3399904 -7.89593506 43.05725098 C-4.89252627 28.76036934 -2.2233236 14.44206581 0 0 Z " fill="#FFFBEC" transform="translate(153,210)"/>
<path d="" fill="#FFFF00" transform="translate(0,0)"/>
</svg>
